<svg width="370.3px" height="122px" xmlns="http://www.w3.org/2000/svg" viewBox="64.85822753906251 14 370.283544921875 122" style="background: rgba(0, 0, 0, 0)" preserveAspectRatio="xMidYMid"><defs><linearGradient id="editing-gradient-gradient" x1="0" x2="1" y1="0.5" y2="0.5" gradientUnits="objectBoundingBox"><stop offset="0" stop-color="#d75bd7"></stop><stop offset="1" stop-color="#589544"></stop></linearGradient></defs><g transform="rotate(0,248.3,86.5)"><g transform="matrix(1.4,0,0,1.4,131.1,161.4)"><path d="M -15.9 -69.2 L -15.9 -69.2 L -15.9 -69.2 Q -14.9 -71.1 -14.9 -72.9 L -14.9 -72.9 L -14.9 -72.9 Q -14.9 -74.7 -15.1 -75.7 L -15.1 -75.7 L -15.1 -75.7 Q -15.3 -76.7 -15.7 -77.4 L -15.7 -77.4 L -15.7 -77.4 Q -16.7 -79.1 -18.6 -79.1 L -18.6 -79.1 L -18.6 -79.1 Q -21 -79.1 -22.9 -77.4 L -22.9 -77.4 L -22.9 -77.4 Q -24.9 -75.6 -24.9 -72.7 L -24.9 -72.7 L -24.9 -72.7 Q -24.9 -71 -23.7 -69.6 L -23.7 -69.6 L -23.7 -69.6 Q -22.4 -68.2 -20.5 -66.9 L -20.5 -66.9 L -20.5 -66.9 Q -18.6 -65.6 -16.4 -64.4 L -16.4 -64.4 L -16.4 -64.4 Q -14.3 -63.1 -12.3 -61.5 L -12.3 -61.5 L -12.3 -61.5 Q -7.9 -58 -7.9 -53.3 L -7.9 -53.3 L -7.9 -53.3 Q -7.9 -50.1 -9.6 -47.4 L -9.6 -47.4 L -9.6 -47.4 Q -11.3 -44.7 -14.1 -42.7 L -14.1 -42.7 L -14.1 -42.7 Q -20.3 -38.3 -28.4 -38.3 L -28.4 -38.3 L -28.4 -38.3 Q -35 -38.3 -38.4 -40.5 L -38.4 -40.5 L -38.4 -40.5 Q -41.8 -42.6 -41.8 -45.9 L -41.8 -45.9 L -41.8 -45.9 Q -41.8 -51.7 -37.2 -53.2 L -37.2 -53.2 L -37.2 -53.2 Q -36 -53.6 -34 -53.6 L -34 -53.6 L -34 -53.6 Q -32 -53.6 -29.8 -52.8 L -29.8 -52.8 L -29.8 -52.8 Q -30.8 -50.2 -30.8 -47.8 L -30.8 -47.8 L -30.8 -47.8 Q -30.8 -42.7 -27.2 -42.7 L -27.2 -42.7 L -27.2 -42.7 Q -24.8 -42.7 -22.9 -44.4 L -22.9 -44.4 L -22.9 -44.4 Q -20.9 -46.1 -20.9 -48.1 L -20.9 -48.1 L -20.9 -48.1 Q -20.9 -50 -22.2 -51.4 L -22.2 -51.4 L -22.2 -51.4 Q -23.4 -52.8 -25.3 -54 L -25.3 -54 L -25.3 -54 Q -27.1 -55.1 -29.3 -56.2 L -29.3 -56.2 L -29.3 -56.2 Q -31.4 -57.3 -33.3 -58.8 L -33.3 -58.8 L -33.3 -58.8 Q -37.6 -62.3 -37.6 -67.9 L -37.6 -67.9 L -37.6 -67.9 Q -37.6 -71.6 -35.8 -74.4 L -35.8 -74.4 L -35.8 -74.4 Q -34 -77.3 -31.2 -79.2 L -31.2 -79.2 L -31.2 -79.2 Q -25.4 -83.1 -18.3 -83.1 L -18.3 -83.1 L -18.3 -83.1 Q -11.2 -83.1 -7.8 -81 L -7.8 -81 L -7.8 -81 Q -4.4 -78.9 -4.4 -75.3 L -4.4 -75.3 L -4.4 -75.3 Q -4.4 -72.2 -6.8 -70.2 L -6.8 -70.2 L -6.8 -70.2 Q -8.9 -68.5 -11.5 -68.5 L -11.5 -68.5 L -11.5 -68.5 Q -14.1 -68.5 -15.9 -69.2 Z M 13.5 -69.9 L 13.5 -69.9 L 13.5 -69.9 Q 16.9 -73.5 24.2 -73.5 L 24.2 -73.5 L 24.2 -73.5 Q 28.2 -73.5 30.4 -71.4 L 30.4 -71.4 L 30.4 -71.4 Q 32.7 -69.2 32.7 -65.3 L 32.7 -65.3 L 32.7 -65.3 Q 32.7 -61.4 30.4 -58.6 L 30.4 -58.6 L 30.4 -58.6 Q 28.2 -55.8 24.1 -54.6 L 24.1 -54.6 L 24.1 -54.6 Q 24.5 -53.4 24.9 -52 L 24.9 -52 L 25.8 -49.5 L 25.8 -49.5 Q 27 -46.2 28 -45 L 28 -45 L 28 -45 Q 28.9 -43.9 30.2 -43.5 L 30.2 -43.5 L 30.2 -43.5 Q 29.5 -40.9 27 -39.5 L 27 -39.5 L 27 -39.5 Q 24.9 -38.3 22.1 -38.3 L 22.1 -38.3 L 22.1 -38.3 Q 13.8 -38.3 12.8 -51.1 L 12.8 -51.1 L 12.8 -51.1 Q 12.6 -52.8 12.6 -54.6 L 12.6 -54.6 L 12.6 -54.6 Q 15.8 -55.5 18 -58.5 L 18 -58.5 L 18 -58.5 Q 20.2 -61.5 20.2 -65.1 L 20.2 -65.1 L 20.2 -65.1 Q 20.2 -68.6 17.7 -68.6 L 17.7 -68.6 L 17.7 -68.6 Q 16 -68.6 14.5 -66.6 L 14.5 -66.6 L 14.5 -66.6 Q 13.1 -64.6 12.5 -61.2 L 12.5 -61.2 L 8.3 -39.6 L -4.7 -38.3 L 4.3 -84.4 L 17.2 -85.7 L 15.7 -78.1 L 15.7 -78.1 Q 14.7 -72.7 13.5 -69.9 Z M 51 -43.1 L 51 -43.1 L 51 -43.1 Q 49 -38.3 42.6 -38.3 L 42.6 -38.3 L 42.6 -38.3 Q 39.4 -38.3 37.3 -40.6 L 37.3 -40.6 L 37.3 -40.6 Q 35.6 -42.5 35.6 -44.5 L 35.6 -44.5 L 35.6 -44.5 Q 35.6 -49.7 38 -59.8 L 38 -59.8 L 40.3 -72.2 L 53.3 -73.5 L 49.4 -53.3 L 49.4 -53.3 Q 48.3 -48.6 48.3 -46.9 L 48.3 -46.9 L 48.3 -46.9 Q 48.3 -43.2 51 -43.1 Z M 41.5 -81.1 L 41.5 -81.1 L 41.5 -81.1 Q 41.5 -83.6 43.6 -85 L 43.6 -85 L 43.6 -85 Q 45.6 -86.3 48.7 -86.3 L 48.7 -86.3 L 48.7 -86.3 Q 51.7 -86.3 53.5 -85 L 53.5 -85 L 53.5 -85 Q 55.3 -83.6 55.3 -81.1 L 55.3 -81.1 L 55.3 -81.1 Q 55.3 -78.6 53.3 -77.4 L 53.3 -77.4 L 53.3 -77.4 Q 51.3 -76.1 48.3 -76.1 L 48.3 -76.1 L 48.3 -76.1 Q 45.3 -76.1 43.4 -77.4 L 43.4 -77.4 L 43.4 -77.4 Q 41.5 -78.6 41.5 -81.1 Z M 102.5 -38.3 L 102.5 -38.3 L 102.5 -38.3 Q 94.7 -38.3 94.7 -44.3 L 94.7 -44.3 L 94.7 -44.3 Q 94.7 -47 95.9 -52 L 95.9 -52 L 95.9 -52 Q 97 -57.1 97.4 -59.2 L 97.4 -59.2 L 97.4 -59.2 Q 98.3 -63.9 98.3 -65.3 L 98.3 -65.3 L 98.3 -65.3 Q 98.3 -68.6 95.8 -68.6 L 95.8 -68.6 L 95.8 -68.6 Q 94.2 -68.6 92.7 -66.4 L 92.7 -66.4 L 92.7 -66.4 Q 91.2 -64.2 90.4 -59.8 L 90.4 -59.8 L 86.5 -39.6 L 74 -38.3 L 77.5 -55.7 L 77.5 -55.7 Q 78 -58.6 78.5 -61.9 L 78.5 -61.9 L 78.5 -61.9 Q 79.1 -65.1 79.1 -65.6 L 79.1 -65.6 L 79.1 -65.6 Q 79.1 -68.6 76.9 -68.6 L 76.9 -68.6 L 76.9 -68.6 Q 75.4 -68.6 73.8 -66.4 L 73.8 -66.4 L 73.8 -66.4 Q 72.2 -64.2 71.3 -59.8 L 71.3 -59.8 L 67.4 -39.6 L 54.8 -38.3 L 61.5 -72.2 L 72 -73.5 L 70.9 -67.1 L 70.9 -67.1 Q 72.5 -70.5 75.6 -72 L 75.6 -72 L 75.6 -72 Q 78.7 -73.5 83.5 -73.5 L 83.5 -73.5 L 83.5 -73.5 Q 86.2 -73.5 88 -72.2 L 88 -72.2 L 88 -72.2 Q 89.8 -70.8 90.4 -68.7 L 90.4 -68.7 L 90.4 -68.7 Q 91.5 -70.9 94.3 -72.2 L 94.3 -72.2 L 94.3 -72.2 Q 97 -73.5 100.5 -73.5 L 100.5 -73.5 L 100.5 -73.5 Q 103.9 -73.5 105.6 -72.8 L 105.6 -72.8 L 105.6 -72.8 Q 107.3 -72 108.3 -70.8 L 108.3 -70.8 L 108.3 -70.8 Q 110 -68.6 110 -64.5 L 110 -64.5 L 110 -64.5 Q 110 -60.5 108.3 -52.1 L 108.3 -52.1 L 108.3 -52.1 Q 107.4 -48 107.4 -46.5 L 107.4 -46.5 L 107.4 -46.5 Q 107.4 -45 108.3 -44.1 L 108.3 -44.1 L 108.3 -44.1 Q 109.1 -43.2 110.4 -43.1 L 110.4 -43.1 L 110.4 -43.1 Q 109.8 -40.9 107.6 -39.6 L 107.6 -39.6 L 107.6 -39.6 Q 105.4 -38.3 102.5 -38.3 Z M 134.7 -38.8 L 136.1 -43.4 L 136.1 -43.4 Q 138.3 -42.2 141.6 -42.2 L 141.6 -42.2 L 141.6 -42.2 Q 145 -42.2 147.8 -44.2 L 147.8 -44.2 L 147.8 -44.2 Q 150.5 -46.3 152.5 -50 L 152.5 -50 L 152.5 -50 Q 156.6 -57.8 156.6 -70.5 L 156.6 -70.5 L 156.6 -70.5 Q 156.6 -78.6 153 -78.6 L 153 -78.6 L 153 -78.6 Q 151.1 -78.6 149.2 -76.5 L 149.2 -76.5 L 149.2 -76.5 Q 147.3 -74.3 145.9 -71 L 145.9 -71 L 145.9 -71 Q 142.7 -63.2 142.7 -54.1 L 142.7 -54.1 L 142.7 -54.1 Q 142.7 -52.3 143.6 -51.1 L 143.6 -51.1 L 143.6 -51.1 Q 144.5 -50 146.1 -50 L 146.1 -50 L 146.1 -50 Q 145.8 -48 144.1 -46.6 L 144.1 -46.6 L 144.1 -46.6 Q 142.4 -45.2 140.2 -45.2 L 140.2 -45.2 L 140.2 -45.2 Q 135 -45.2 132.3 -48.5 L 132.3 -48.5 L 132.3 -48.5 Q 129.7 -51.7 129.7 -57.5 L 129.7 -57.5 L 129.7 -57.5 Q 129.7 -63.4 131.5 -68 L 131.5 -68 L 131.5 -68 Q 133.3 -72.6 136.4 -76 L 136.4 -76 L 136.4 -76 Q 139.5 -79.3 143.9 -81.3 L 143.9 -81.3 L 143.9 -81.3 Q 148.2 -83.2 153.3 -83.2 L 153.3 -83.2 L 153.3 -83.2 Q 170.4 -83.2 170.4 -66.5 L 170.4 -66.5 L 170.4 -66.5 Q 170.4 -54.4 164.7 -47.1 L 164.7 -47.1 L 164.7 -47.1 Q 158.9 -39.7 148.9 -38.8 L 148.9 -38.8 L 148.9 -38.8 Q 154.8 -37.5 160.8 -37.5 L 160.8 -37.5 L 160.8 -37.5 Q 165.5 -37.5 168.9 -39.5 L 168.9 -39.5 L 168.9 -39.5 Q 169.9 -40 170.3 -40.7 L 170.3 -40.7 L 170.3 -40.7 Q 172.2 -39 172.2 -35.5 L 172.2 -35.5 L 172.2 -35.5 Q 172.2 -32.1 169.1 -30.1 L 169.1 -30.1 L 169.1 -30.1 Q 166.1 -28.1 160.2 -28.1 L 160.2 -28.1 L 160.2 -28.1 Q 154.3 -28.1 147.4 -30.9 L 147.4 -30.9 L 147.4 -30.9 Q 140.6 -33.6 134.7 -38.8 L 134.7 -38.8 Z M 206.9 -52.8 L 206.9 -52.8 L 206.9 -52.8 Q 208.6 -51.6 208.6 -49 L 208.6 -49 L 208.6 -49 Q 208.6 -46.4 207.5 -44.6 L 207.5 -44.6 L 207.5 -44.6 Q 206.4 -42.8 204.2 -41.4 L 204.2 -41.4 L 204.2 -41.4 Q 199.5 -38.4 191.3 -38.4 L 191.3 -38.4 L 191.3 -38.4 Q 183.2 -38.4 178.7 -42.6 L 178.7 -42.6 L 178.7 -42.6 Q 174.3 -46.9 174.3 -54.4 L 174.3 -54.4 L 174.3 -54.4 Q 174.3 -65.1 179.9 -73.3 L 179.9 -73.3 L 179.9 -73.3 Q 184.1 -79.3 191.6 -81.8 L 191.6 -81.8 L 191.6 -81.8 Q 195.5 -83.1 199.4 -83.1 L 199.4 -83.1 L 199.4 -83.1 Q 203.2 -83.1 205.6 -82.6 L 205.6 -82.6 L 205.6 -82.6 Q 208 -82.1 209.7 -81.1 L 209.7 -81.1 L 209.7 -81.1 Q 213.6 -78.8 213.6 -75.2 L 213.6 -75.2 L 213.6 -75.2 Q 213.6 -72 210.6 -69.5 L 210.6 -69.5 L 210.6 -69.5 Q 207.8 -67.4 205.5 -67.4 L 205.5 -67.4 L 205.5 -67.4 Q 203.2 -67.4 202.2 -67.7 L 202.2 -67.7 L 202.2 -67.7 Q 202.4 -70 202.4 -71.5 L 202.4 -71.5 L 202.4 -71.5 Q 202.4 -73 202.4 -74.1 L 202.4 -74.1 L 202.4 -74.1 Q 202.3 -75.2 202 -76.2 L 202 -76.2 L 202 -76.2 Q 201.4 -78.6 199.4 -78.6 L 199.4 -78.6 L 199.4 -78.6 Q 197.5 -78.6 195.5 -76.7 L 195.5 -76.7 L 195.5 -76.7 Q 193.6 -74.9 191.9 -71.9 L 191.9 -71.9 L 191.9 -71.9 Q 188.1 -64.9 188.1 -56.6 L 188.1 -56.6 L 188.1 -56.6 Q 188.1 -52.7 190.4 -50.4 L 190.4 -50.4 L 190.4 -50.4 Q 192.6 -48.1 197.4 -48.1 L 197.4 -48.1 L 197.4 -48.1 Q 201 -48.1 204.4 -50.5 L 204.4 -50.5 L 204.4 -50.5 Q 205.8 -51.5 206.9 -52.8 Z" fill="url(#editing-gradient-gradient)"></path></g></g><style>text {
  font-size: 64px;
  font-family: Arial Black;
  dominant-baseline: central;
  text-anchor: middle;
}</style></svg>